<mxfile host="app.diagrams.net" modified="2024-03-20T06:24:04.626Z" agent="Mozilla/5.0 (Macintosh; Intel Mac OS X 10_15_7) AppleWebKit/537.36 (KHTML, like Gecko) Chrome/122.0.0.0 Safari/537.36" etag="vnpp2JS-vYSE4Oy8CdfN" version="24.0.7" type="github">
  <diagram name="第 1 页" id="nN3j2PtZWZERADbP7Rvh">
    <mxGraphModel dx="1247" dy="1146" grid="1" gridSize="10" guides="1" tooltips="1" connect="1" arrows="1" fold="1" page="1" pageScale="1" pageWidth="827" pageHeight="1169" math="0" shadow="0">
      <root>
        <mxCell id="0" />
        <mxCell id="1" parent="0" />
        <mxCell id="fjrKh2QVIlpnRIJTmNw_-1" value="a" style="ellipse;whiteSpace=wrap;html=1;fontSize=15;" vertex="1" parent="1">
          <mxGeometry x="1720" y="230" width="50" height="35" as="geometry" />
        </mxCell>
        <mxCell id="fjrKh2QVIlpnRIJTmNw_-2" value="b" style="ellipse;whiteSpace=wrap;html=1;fontSize=15;" vertex="1" parent="1">
          <mxGeometry x="1830" y="229.5" width="50" height="35" as="geometry" />
        </mxCell>
        <mxCell id="fjrKh2QVIlpnRIJTmNw_-3" value="c" style="ellipse;whiteSpace=wrap;html=1;fontSize=15;" vertex="1" parent="1">
          <mxGeometry x="1940" y="230" width="50" height="35" as="geometry" />
        </mxCell>
        <mxCell id="fjrKh2QVIlpnRIJTmNw_-4" value="d" style="ellipse;whiteSpace=wrap;html=1;fontSize=15;" vertex="1" parent="1">
          <mxGeometry x="2050" y="230" width="50" height="35" as="geometry" />
        </mxCell>
        <mxCell id="fjrKh2QVIlpnRIJTmNw_-5" value="a" style="ellipse;whiteSpace=wrap;html=1;fontSize=15;" vertex="1" parent="1">
          <mxGeometry x="1665" y="380.5" width="50" height="35" as="geometry" />
        </mxCell>
        <mxCell id="fjrKh2QVIlpnRIJTmNw_-6" value="b" style="ellipse;whiteSpace=wrap;html=1;fontSize=15;" vertex="1" parent="1">
          <mxGeometry x="1775" y="380" width="50" height="35" as="geometry" />
        </mxCell>
        <mxCell id="fjrKh2QVIlpnRIJTmNw_-7" value="f" style="ellipse;whiteSpace=wrap;html=1;fontSize=15;" vertex="1" parent="1">
          <mxGeometry x="1995" y="380" width="50" height="35" as="geometry" />
        </mxCell>
        <mxCell id="fjrKh2QVIlpnRIJTmNw_-8" value="d" style="ellipse;whiteSpace=wrap;html=1;fontSize=15;" vertex="1" parent="1">
          <mxGeometry x="2105" y="380" width="50" height="35" as="geometry" />
        </mxCell>
        <mxCell id="fjrKh2QVIlpnRIJTmNw_-9" value="e" style="ellipse;whiteSpace=wrap;html=1;fontSize=15;" vertex="1" parent="1">
          <mxGeometry x="1885" y="380.5" width="50" height="35" as="geometry" />
        </mxCell>
        <mxCell id="fjrKh2QVIlpnRIJTmNw_-10" value="" style="shape=flexArrow;endArrow=classic;startArrow=classic;html=1;rounded=0;endWidth=14;endSize=5.56;startWidth=14;startSize=5.56;exitX=0.5;exitY=1;exitDx=0;exitDy=0;entryX=0.5;entryY=0;entryDx=0;entryDy=0;fontSize=15;" edge="1" parent="1" source="fjrKh2QVIlpnRIJTmNw_-1" target="fjrKh2QVIlpnRIJTmNw_-5">
          <mxGeometry width="100" height="100" relative="1" as="geometry">
            <mxPoint x="1650" y="365" as="sourcePoint" />
            <mxPoint x="1710" y="380" as="targetPoint" />
          </mxGeometry>
        </mxCell>
        <mxCell id="fjrKh2QVIlpnRIJTmNw_-11" value="" style="shape=flexArrow;endArrow=classic;startArrow=classic;html=1;rounded=0;endWidth=14;endSize=5.56;startWidth=14;startSize=5.56;exitX=0.5;exitY=1;exitDx=0;exitDy=0;entryX=0.5;entryY=0;entryDx=0;entryDy=0;fontSize=15;" edge="1" parent="1" source="fjrKh2QVIlpnRIJTmNw_-4" target="fjrKh2QVIlpnRIJTmNw_-8">
          <mxGeometry width="100" height="100" relative="1" as="geometry">
            <mxPoint x="2245" y="475" as="sourcePoint" />
            <mxPoint x="2190" y="591" as="targetPoint" />
          </mxGeometry>
        </mxCell>
        <mxCell id="fjrKh2QVIlpnRIJTmNw_-12" value="" style="endArrow=classic;html=1;rounded=0;entryX=0.5;entryY=0;entryDx=0;entryDy=0;fontSize=15;" edge="1" parent="1">
          <mxGeometry width="50" height="50" relative="1" as="geometry">
            <mxPoint x="1745" y="165" as="sourcePoint" />
            <mxPoint x="1745" y="225" as="targetPoint" />
          </mxGeometry>
        </mxCell>
        <mxCell id="fjrKh2QVIlpnRIJTmNw_-13" value="commonHead" style="text;html=1;align=center;verticalAlign=middle;resizable=0;points=[];autosize=1;strokeColor=none;fillColor=none;fontSize=15;" vertex="1" parent="1">
          <mxGeometry x="1685" y="130" width="120" height="30" as="geometry" />
        </mxCell>
        <mxCell id="fjrKh2QVIlpnRIJTmNw_-14" value="" style="endArrow=classic;html=1;rounded=0;fontSize=15;" edge="1" parent="1">
          <mxGeometry width="50" height="50" relative="1" as="geometry">
            <mxPoint x="1690" y="490" as="sourcePoint" />
            <mxPoint x="1690" y="430" as="targetPoint" />
          </mxGeometry>
        </mxCell>
        <mxCell id="fjrKh2QVIlpnRIJTmNw_-15" value="commonHead" style="text;html=1;align=center;verticalAlign=middle;resizable=0;points=[];autosize=1;strokeColor=none;fillColor=none;fontSize=15;" vertex="1" parent="1">
          <mxGeometry x="1630" y="500" width="120" height="30" as="geometry" />
        </mxCell>
        <mxCell id="fjrKh2QVIlpnRIJTmNw_-16" value="" style="endArrow=classic;html=1;rounded=0;entryX=0.5;entryY=0;entryDx=0;entryDy=0;fontSize=15;" edge="1" parent="1">
          <mxGeometry width="50" height="50" relative="1" as="geometry">
            <mxPoint x="2074.5" y="165" as="sourcePoint" />
            <mxPoint x="2074.5" y="225" as="targetPoint" />
          </mxGeometry>
        </mxCell>
        <mxCell id="fjrKh2QVIlpnRIJTmNw_-17" value="oldEnd" style="text;html=1;align=center;verticalAlign=middle;resizable=0;points=[];autosize=1;strokeColor=none;fillColor=none;fontSize=15;" vertex="1" parent="1">
          <mxGeometry x="2040" y="128" width="70" height="30" as="geometry" />
        </mxCell>
        <mxCell id="fjrKh2QVIlpnRIJTmNw_-18" value="" style="endArrow=classic;html=1;rounded=0;fontSize=15;" edge="1" parent="1">
          <mxGeometry width="50" height="50" relative="1" as="geometry">
            <mxPoint x="2130" y="478" as="sourcePoint" />
            <mxPoint x="2130" y="418" as="targetPoint" />
          </mxGeometry>
        </mxCell>
        <mxCell id="fjrKh2QVIlpnRIJTmNw_-19" value="newEnd" style="text;html=1;align=center;verticalAlign=middle;resizable=0;points=[];autosize=1;strokeColor=none;fillColor=none;fontSize=15;" vertex="1" parent="1">
          <mxGeometry x="2090" y="488" width="80" height="30" as="geometry" />
        </mxCell>
        <mxCell id="fjrKh2QVIlpnRIJTmNw_-20" value="前置对比" style="text;html=1;align=center;verticalAlign=middle;resizable=0;points=[];autosize=1;strokeColor=none;fillColor=none;fontSize=15;" vertex="1" parent="1">
          <mxGeometry x="1630" y="298" width="80" height="30" as="geometry" />
        </mxCell>
        <mxCell id="fjrKh2QVIlpnRIJTmNw_-21" value="后置对比" style="text;html=1;align=center;verticalAlign=middle;resizable=0;points=[];autosize=1;strokeColor=none;fillColor=none;fontSize=15;" vertex="1" parent="1">
          <mxGeometry x="2100" y="298" width="80" height="30" as="geometry" />
        </mxCell>
        <mxCell id="fjrKh2QVIlpnRIJTmNw_-22" value="oldArray：" style="text;html=1;align=center;verticalAlign=middle;resizable=0;points=[];autosize=1;strokeColor=none;fillColor=none;fontSize=15;" vertex="1" parent="1">
          <mxGeometry x="1625" y="237.5" width="90" height="30" as="geometry" />
        </mxCell>
        <mxCell id="fjrKh2QVIlpnRIJTmNw_-23" value="newArray：" style="text;html=1;align=center;verticalAlign=middle;resizable=0;points=[];autosize=1;strokeColor=none;fillColor=none;fontSize=15;" vertex="1" parent="1">
          <mxGeometry x="1565" y="388" width="100" height="30" as="geometry" />
        </mxCell>
      </root>
    </mxGraphModel>
  </diagram>
</mxfile>
